<svg width="1570" height="499" viewBox="0 0 1570 499" fill="none" xmlns="http://www.w3.org/2000/svg">
<path d="M319.682 146.881C426.5 49.6992 616.044 256.912 377.508 370.157C329.319 593.433 122.909 478.582 203.224 370.157C57.8536 480.992 -18.4458 249.684 109.256 219.967C-54.588 217.558 -34.5092 -51.4981 171.902 81.0221C222.5 -59.5295 390.359 -4.11199 319.682 146.881Z" fill="#79AC78"/>
<path d="M456.217 469.747C438.654 441.03 406.238 395.986 363.051 348.352M157.444 183.825C192.753 201.795 226.334 224.256 257.495 248.881M257.495 248.881V160.534M257.495 248.881L183.145 271.369M257.495 248.881C297.052 280.14 332.71 314.885 363.051 348.352M363.051 348.352L353.414 209.526M363.051 348.352L289.161 358.913" stroke="#618264" stroke-width="19.2757" stroke-linecap="round" stroke-linejoin="round"/>
<path d="M1516.06 195.397H1515.58L1515.1 195.441L1506.08 196.274V193.062C1506.43 193.041 1506.82 193.029 1507.26 193.029H1507.29H1507.31H1507.33H1507.36H1507.38H1507.4H1507.43H1507.45H1507.47H1507.5H1507.52H1507.54H1507.56H1507.59H1507.61H1507.63H1507.66H1507.68H1507.7H1507.73H1507.75H1507.77H1507.79H1507.82H1507.84H1507.86H1507.88H1507.91H1507.93H1507.95H1507.98H1508H1508.02H1508.04H1508.07H1508.09H1508.11H1508.13H1508.16H1508.18H1508.2H1508.22H1508.24H1508.27H1508.29H1508.31H1508.33H1508.36H1508.38H1508.4H1508.42H1508.44H1508.47H1508.49H1508.51H1508.53H1508.55H1508.58H1508.6H1508.62H1508.64H1508.66H1508.69H1508.71H1508.73H1508.75H1508.77H1508.79H1508.82H1508.84H1508.86H1508.88H1508.9H1508.92H1508.95H1508.97H1508.99H1509.01H1509.03H1509.05H1509.07H1509.1H1509.12H1509.14H1509.16H1509.18H1509.2H1509.22H1509.24H1509.27H1509.29H1509.31H1509.33H1509.35H1509.37H1509.39H1509.41H1509.43H1509.45H1509.48H1509.5H1509.52H1509.54H1509.56H1509.58H1509.6H1509.62H1509.64H1509.66H1509.68H1509.7H1509.73H1509.75H1509.77H1509.79H1509.81H1509.83H1509.85H1509.87H1509.89H1509.91H1509.93H1509.95H1509.97H1509.99H1510.01H1510.03H1510.05H1510.07H1510.09H1510.11H1510.13H1510.15H1510.17H1510.19H1510.21H1510.23H1510.25H1510.27H1510.29H1510.31H1510.33H1510.35H1510.37H1510.39H1510.41H1510.43H1510.45H1510.47H1510.49H1510.51H1510.53H1510.55H1510.57H1510.59H1510.61H1510.63H1510.65H1510.67H1510.69H1510.71H1510.73H1510.75H1510.77H1510.79H1510.8H1510.82H1510.84H1510.86H1510.88H1510.9H1510.92H1510.94H1510.96H1510.98H1511H1511.02H1511.03H1511.05H1511.07H1511.09H1511.11H1511.13H1511.15H1511.17H1511.19H1511.21H1511.22H1511.24H1511.26H1511.28H1511.3H1511.32H1511.34H1511.36H1511.37H1511.39H1511.41H1511.43H1511.45H1511.47H1511.49H1511.5H1511.52H1511.54H1511.56H1511.58H1511.6H1511.61H1511.63H1511.65H1511.67H1511.69H1511.71H1511.72H1511.74H1511.76H1511.78H1511.8H1511.81H1511.83H1511.85H1511.87H1511.89H1511.9H1511.92H1511.94H1511.96H1511.98H1511.99H1512.01H1512.03H1512.05H1512.06H1512.08H1512.1H1512.12H1512.13H1512.15H1512.17H1512.19H1512.21H1512.22H1512.24H1512.26H1512.27H1512.29H1512.31H1512.33H1512.34H1512.36H1512.38H1512.4H1512.41H1512.43H1512.45H1512.47H1512.48H1512.5H1512.52H1512.53H1512.55H1512.57H1512.58H1512.6H1512.62H1512.64H1512.65H1512.67H1512.69H1512.7H1512.72H1512.74H1512.75H1512.77H1512.79H1512.8H1512.82H1512.84H1512.85H1512.87H1512.89H1512.9H1512.92H1512.94H1512.95H1512.97H1512.99H1513H1513.02H1513.03H1513.05H1513.07H1513.08H1513.1H1513.12H1513.13H1513.15H1513.16H1513.18H1513.2H1513.21H1513.23H1513.25H1513.26H1513.28H1513.29H1513.31H1513.32H1513.34H1513.36H1513.37H1513.39H1513.4H1513.42H1513.44H1513.45H1513.47H1513.48H1513.5H1513.51H1513.53H1513.55H1513.56H1513.58H1513.59H1513.61H1513.62H1513.64H1513.65H1513.67H1513.68H1513.7H1513.72H1513.73H1513.75H1513.76H1513.78H1513.79H1513.81H1513.82H1513.84H1513.85H1513.87H1513.88H1513.9H1513.91H1513.93H1513.94H1513.96H1513.97H1513.99H1514H1514.02H1514.03H1514.05H1514.06H1514.08H1514.09H1514.11H1514.12H1514.13H1514.15H1514.16H1514.18H1514.19H1514.21H1514.22H1514.24H1514.25H1514.27H1514.28H1514.29H1514.31H1514.32H1514.34H1514.35H1514.37H1514.38H1514.39H1514.41H1514.42H1514.44H1514.45H1514.46H1514.48H1514.49H1514.51H1514.52H1514.54H1514.55H1514.56H1514.58H1514.59H1514.6H1514.62H1514.63H1514.65H1514.66H1514.67H1514.69H1514.7H1514.71H1514.73H1514.74H1514.76H1514.77H1514.78H1514.8H1514.81H1514.82H1514.84H1514.85H1514.86H1514.88H1514.89H1514.9H1514.92H1514.93H1514.94H1514.96H1514.97H1514.98H1515H1515.01H1515.02H1515.04H1515.05H1515.06H1515.07H1515.09H1515.1H1515.11H1515.13H1515.14H1515.15H1515.17H1515.18H1515.19H1515.2H1515.22H1515.23H1515.24H1515.25H1515.27H1515.28H1515.29H1515.31H1515.32H1515.33H1515.34H1515.36H1515.37H1515.38H1515.39H1515.4H1515.42H1515.43H1515.44H1515.45H1515.47H1515.48H1515.49H1515.5H1515.52H1515.53H1515.54H1515.55H1515.56H1515.58H1515.59H1515.6H1515.61H1515.62H1515.64H1515.65H1515.66H1515.67H1515.68H1515.7H1515.71H1515.72H1515.73H1515.74H1515.75H1515.77H1515.78H1515.79H1515.8H1515.81H1515.82H1515.84H1515.85H1515.86H1515.87H1515.88H1515.89H1515.9H1515.92H1515.93H1515.94H1515.95H1515.96H1515.97H1515.98H1515.99H1516.01H1516.02H1516.03H1516.04H1516.05H1516.06H1516.41L1516.76 193.006C1524.65 192.48 1532.34 189.978 1537.74 183.808L1537.87 183.658L1538 183.502C1543.85 176.271 1545.67 166.041 1545.67 155.254C1545.67 147.965 1544.92 141.285 1542.96 135.697C1540.99 130.088 1537.47 124.726 1531.49 121.759C1527.77 119.797 1523.78 118.312 1519.65 117.878C1516.43 117.347 1512.27 117.164 1507.58 117.164C1483.59 117.164 1463.75 124.519 1449.78 140.501C1436.73 155.232 1429.9 172.198 1429.9 191.071V197.282C1421.04 197.3 1412.98 200.581 1407.6 208.066C1402.65 214.936 1401 223.96 1401 233.487C1401 245.146 1402.86 256.646 1410.02 263.805L1410.2 263.981L1410.38 264.148C1415.28 268.604 1422.03 270.126 1428.23 270.603L1428.63 270.633H1429.03H1429.9V343.452C1429.9 348.35 1430 352.362 1430.25 355.316L1430.29 355.743L1430.36 356.165C1431.02 360.143 1432.57 364.07 1434.59 367.845L1434.66 367.98L1434.73 368.112C1437.82 373.512 1442.64 377.106 1448.18 379.261L1448.5 379.384L1448.82 379.486C1454.22 381.191 1460.64 381.856 1467.68 381.856C1474.68 381.856 1481.08 381.196 1486.46 379.508C1493.22 377.46 1498.57 373.131 1501.79 366.755C1505.03 360.541 1506.08 352.571 1506.08 344.081V270.992L1515.1 271.556L1515.42 271.576H1515.75C1524.89 271.576 1533.4 270.254 1540.09 266.43C1545.59 263.289 1549.12 258.34 1551.05 252.654C1553.06 247.107 1553.84 240.563 1553.84 233.487C1553.84 226.45 1553.17 220.031 1551.47 214.633C1546.71 199.58 1531.3 195.397 1516.06 195.397Z" fill="#445F47" stroke="white" stroke-width="20.882"/>
<path d="M1400.3 367.253L1400.44 366.99L1400.57 366.719C1402.26 363.103 1403.57 359.299 1403.98 355.488C1404.5 352.163 1404.69 347.943 1404.69 343.138V233.172C1404.69 228.477 1404.51 224.317 1403.98 221.103C1403.54 216.986 1402.07 213.015 1400.12 209.316C1397.15 203.153 1391.83 199.367 1385.77 197.452C1380.21 195.697 1372.82 195.083 1364.4 195.083C1355.63 195.083 1347.28 196.732 1340.69 201.404C1339 202.603 1337.51 203.941 1336.2 205.399C1333.13 203.4 1329.56 201.629 1325.78 200.011C1318.48 196.88 1310.56 195.397 1302.19 195.397C1280.07 195.397 1260.3 205.345 1243.09 223.47L1243.09 223.473C1225.8 241.699 1216.97 263.417 1216.97 288.155C1216.97 312.707 1225.81 334.394 1243.05 352.789C1259.98 370.863 1279.33 380.913 1300.94 380.913C1314.78 380.913 1327 377.994 1336.65 371.46C1337.68 372.59 1338.82 373.65 1340.08 374.629L1340.33 374.825L1340.6 375.005C1344.33 377.559 1348.89 378.93 1353.38 379.73C1358.01 380.555 1363.41 380.913 1369.43 380.913C1381.49 380.913 1394.39 378.232 1400.3 367.253ZM1321.87 299.913L1321.79 299.99L1321.72 300.07C1318.73 303.435 1315.21 305.048 1310.36 305.048C1305.39 305.048 1301.48 303.433 1298.02 300.006C1294.22 296.037 1292.84 292.285 1292.84 288.469C1292.84 284.373 1294.24 280.362 1297.8 276.181C1300.95 272.683 1304.76 270.948 1310.05 270.948C1315.67 270.948 1319.16 272.751 1321.77 275.931L1321.84 276.016L1321.91 276.099C1325.52 280.309 1326.94 284.346 1326.94 288.469C1326.94 292.148 1325.6 295.877 1321.87 299.913Z" fill="#445F47" stroke="white" stroke-width="20.882"/>
<path d="M1209.15 304.769L1209.15 304.773C1205.43 308.364 1201.38 311.226 1197.01 313.258C1201.89 316.926 1205.72 322.238 1208.67 328.018L1208.73 328.128L1208.78 328.24C1211.84 334.579 1213.9 341.027 1213.9 347.222C1213.9 354.141 1211.77 360.54 1207.44 365.967C1203.24 371.233 1197.41 375.049 1190.76 377.828C1177.66 383.299 1159.26 385.626 1136.54 385.626C1119.86 385.626 1104.59 382.806 1090.93 376.919L1090.83 376.875L1090.73 376.83C1077.54 370.811 1066.75 362.715 1058.83 352.335C1044.27 333.598 1036.87 312.413 1036.87 289.098C1036.87 260.252 1046.25 236.261 1065.66 218.288L1209.15 304.769ZM1209.15 304.769C1218.4 295.822 1222.07 283.091 1222.07 268.675C1222.07 253.655 1217.92 239.731 1209.69 227.144L1209.67 227.116M1209.15 304.769L1209.67 227.116M1209.67 227.116L1209.65 227.087M1209.67 227.116L1209.65 227.087M1209.65 227.087C1193.73 203.079 1168.73 191.627 1136.85 191.627C1108.93 191.627 1084.95 200.409 1065.67 218.285L1209.65 227.087ZM1144.98 264.168L1145.1 264.26L1145.21 264.35C1146.29 265.191 1146.74 265.941 1146.82 267.271C1146.44 267.315 1145.95 267.346 1145.34 267.346H1123.55C1128.5 263.431 1132.57 262.15 1135.91 262.15C1141.56 262.15 1144.03 263.379 1144.98 264.168Z" fill="#445F47" stroke="white" stroke-width="20.882"/>
<path d="M948.492 420.376C948.492 427.801 949.07 434.627 950.945 439.802C955.812 454.699 971.318 458.78 986.582 458.78H1525.15C1532.89 458.78 1540.21 457.643 1546.26 454.484C1551.85 451.649 1555.14 446.709 1556.8 441.399C1558.28 436.644 1558.84 431.077 1558.84 425.089C1558.84 418.939 1558.29 413.247 1556.8 408.464C1554.91 402.438 1550.92 397.75 1545.21 395.008C1539.74 392.181 1532.65 391.398 1525.47 391.398H1024.99V174C1024.99 166.444 1024.48 159.766 1022.99 154.716L1022.91 154.457L1022.82 154.202C1017.68 139.557 1002.18 135.597 986.896 135.597C979.598 135.597 972.915 136.348 967.3 138.292C961.626 140.256 956.239 143.747 953.151 149.654C951.15 153.416 949.608 157.326 948.948 161.287L948.884 161.671L948.849 162.058C948.595 164.859 948.492 168.814 948.492 173.686V420.376Z" fill="#445F47" stroke="white" stroke-width="20.882"/>
<path d="M872.851 209.041L872.786 209.162L872.725 209.285C870.919 212.896 869.568 216.621 868.937 220.407L868.873 220.79L868.838 221.178C868.583 223.978 868.481 227.933 868.481 232.806V277.815C860.836 274.328 852.206 272.635 842.79 272.635C820.663 272.635 800.898 282.583 783.691 300.708L783.667 300.733L783.643 300.759C766.393 319.175 757.572 340.973 757.572 365.707C757.572 390.259 766.413 411.946 783.643 430.341L783.666 430.365L783.689 430.389C800.745 448.368 820.523 458.151 842.79 458.151C855.544 458.151 866.917 455.223 876.417 449.06C877.828 450.516 879.438 451.831 881.249 452.984C887.608 457.03 895.477 458.465 903.743 458.465C911.609 458.465 918.693 457.723 924.577 455.854C930.426 453.996 936.196 450.647 939.542 444.672C941.565 441.121 943.177 437.192 943.633 433.047C944.152 429.721 944.346 425.498 944.346 420.69V233.12C944.346 228.425 944.163 224.265 943.632 221.051C943.2 216.934 941.727 212.962 939.779 209.263C936.801 203.101 931.487 199.315 925.424 197.4C920.002 195.688 913.462 195.03 906.256 195.03C899.219 195.03 892.801 195.695 887.403 197.4C881.3 199.327 876.032 203.077 872.851 209.041ZM862.463 377.465L862.391 377.542L862.321 377.622C859.329 380.987 855.809 382.6 850.959 382.6C846.088 382.6 842.193 380.958 838.686 377.316C834.838 373.32 833.437 369.546 833.437 365.707C833.437 361.602 834.838 357.732 838.341 353.792L838.403 353.722L838.464 353.651C841.325 350.313 845.023 348.499 850.645 348.499C856.267 348.499 859.759 350.303 862.371 353.483L862.44 353.568L862.511 353.651C866.12 357.861 867.538 361.898 867.538 366.021C867.538 369.699 866.2 373.429 862.463 377.465Z" fill="#445F47" stroke="white" stroke-width="20.882"/>
<path d="M645.239 394.51L645.266 394.657L645.296 394.803C646.356 399.855 648.764 404.755 653.262 408.276C657.706 411.755 663.008 412.96 668.11 412.96H712.853C718.251 412.96 723.932 411.8 728.629 408.177L728.942 407.935L729.236 407.671C733.188 404.115 734.872 399.193 735.68 395.032C736.628 390.583 737.017 385.371 737.017 379.61C737.017 373.836 736.626 368.612 735.673 364.157C734.671 359.148 732.283 354.296 727.783 350.825C723.349 347.406 718.069 346.259 713.041 346.259H668.298C662.969 346.259 657.49 347.501 652.898 351.043L652.749 351.158L652.603 351.279C648.439 354.738 646.507 359.65 645.525 363.941C644.526 368.309 644.134 373.533 644.134 379.32C644.134 385.064 644.461 390.189 645.239 394.51Z" fill="#445F47" stroke="white" stroke-width="20.882"/>
<path d="M610.09 417.715L610.11 417.684L610.131 417.653C620.343 402.217 625.374 384.687 625.374 365.393C625.374 337.561 615.619 314.097 595.982 295.868C576.783 277.834 554.269 268.55 528.846 268.55C503.416 268.55 480.813 277.837 461.417 295.847C441.585 314.262 431.689 337.822 431.689 365.707C431.689 384.403 436.631 401.492 446.596 416.679L446.648 416.758L446.702 416.836C456.577 431.304 468.807 442.556 483.41 450.329L483.468 450.36L483.527 450.39C497.907 457.812 512.946 461.607 528.531 461.607C544.002 461.607 558.875 458.077 573.041 451.11L573.072 451.095L573.103 451.079C587.879 443.691 600.192 432.447 610.09 417.715ZM528.217 385.428C524.034 385.428 519.4 383.959 514.147 380.041C510.497 377.155 508.182 372.838 508.182 365.393C508.182 357.486 510.562 353.071 514.035 350.27C518.882 346.362 523.632 344.729 528.531 344.729C533.548 344.729 538.354 346.34 543.19 350.085C546.5 352.647 548.881 356.841 548.881 364.764C548.881 372.436 546.46 376.805 542.649 379.692C537.082 383.909 532.328 385.428 528.217 385.428Z" fill="#445F47" stroke="white" stroke-width="20.882"/>
<path d="M501.678 250.613L501.709 250.519L501.739 250.425C503.225 245.671 503.785 240.103 503.785 234.115C503.785 228.127 503.225 222.559 501.739 217.805C499.856 211.779 495.86 207.091 490.152 204.348C484.716 201.537 477.768 200.738 470.723 200.738H296.034C288.417 200.738 281.204 201.737 275.341 204.668C269.721 207.478 266.412 212.404 264.733 217.71C263.2 222.362 262.657 227.897 262.657 233.801C262.657 239.789 263.218 245.356 264.704 250.111L272.732 247.602L264.704 250.111C266.582 256.121 270.517 260.804 276.04 263.75L276.285 263.881L276.538 263.999C281.827 266.467 288.655 267.177 295.72 267.177H345.603V421.004C345.603 425.902 345.707 429.914 345.953 432.868L345.995 433.372L346.086 433.869C346.721 437.365 348.043 440.981 349.724 444.585L349.907 444.976L350.121 445.35C353.291 450.898 358.302 454.442 364.053 456.359L364.132 456.385L364.211 456.41C369.609 458.115 376.028 458.78 383.064 458.78C390.101 458.78 396.52 458.115 401.918 456.41C407.773 454.561 413.147 450.999 416.212 444.975C418.123 441.373 419.663 437.457 420.118 433.433C420.655 430.213 420.839 426.036 420.839 421.319V267.177H470.408C478.025 267.177 485.239 266.179 491.101 263.247C496.53 260.533 499.924 255.877 501.678 250.613Z" fill="#445F47" stroke="white" stroke-width="20.882"/>
</svg>
